<svg width="28.000000" height="22.000000" viewBox="0 0 28 22" fill="none" xmlns="http://www.w3.org/2000/svg" xmlns:xlink="http://www.w3.org/1999/xlink">
	<desc>
			Created with Pixso.
	</desc>
	<defs/>
	<path id="Rectangle 373" d="M2 1L2.79623 1C3.08459 1 3.35892 1.12448 3.5488 1.34149L7 5.28571L7 16.7143L3.17004 20.6935C2.98151 20.8893 2.72141 21 2.44955 21L2 21C1.44772 21 1 20.5523 1 20L1 2C1 1.44772 1.44772 1 2 1Z" fill="#FFFFFF" fill-opacity="0" fill-rule="nonzero"/>
	<path id="Rectangle 373" d="M7 16.7143L3.17004 20.6935C2.98151 20.8893 2.72141 21 2.44955 21L2 21C1.44772 21 1 20.5523 1 20L1 2C1 1.44772 1.44772 1 2 1L2.79623 1C3.08459 1 3.35892 1.12448 3.5488 1.34149L7 5.28571L7 16.7143Z" stroke="#202020" stroke-opacity="1.000000" stroke-width="2.000000" stroke-linejoin="round"/>
	<path id="Rectangle 374" d="M26 1L25.2038 1C24.9154 1 24.6411 1.12448 24.4512 1.34149L21.2474 5.00293C21.0879 5.18524 21 5.41922 21 5.66144L21 16.3386C21 16.5808 21.0879 16.8148 21.2474 16.997L24.4512 20.6585C24.6411 20.8755 24.9154 21 25.2038 21L26 21C26.5523 21 27 20.5523 27 20L27 2C27 1.44772 26.5523 1 26 1Z" fill="#FFFFFF" fill-opacity="0" fill-rule="nonzero"/>
	<path id="Rectangle 374" d="M21 16.3386C21 16.5808 21.0879 16.8148 21.2474 16.997L24.4512 20.6585C24.6411 20.8755 24.9154 21 25.2038 21L26 21C26.5523 21 27 20.5523 27 20L27 2C27 1.44772 26.5523 1 26 1L25.2038 1C24.9154 1 24.6411 1.12448 24.4512 1.34149L21.2474 5.00293C21.0879 5.18524 21 5.41922 21 5.66144L21 16.3386Z" stroke="#202020" stroke-opacity="1.000000" stroke-width="2.000000" stroke-linejoin="round"/>
	<rect id="Rectangle 371" x="7.000000" y="5.000000" width="14.000000" height="12.000000" fill="#FFFFFF" fill-opacity="0"/>
	<rect id="Rectangle 371" x="7.000000" y="5.000000" width="14.000000" height="12.000000" stroke="#202020" stroke-opacity="1.000000" stroke-width="2.000000"/>
</svg>
